<?xml version="1.0" encoding="UTF-8" standalone="no"?>
<!DOCTYPE svg PUBLIC "-//W3C//DTD SVG 1.1//EN"
 "http://www.w3.org/Graphics/SVG/1.1/DTD/svg11.dtd">
<!-- Generated by graphviz version 2.38.0 (20140413.2041)
 -->
<!-- Title: G Pages: 1 -->
<svg width="587pt" height="220pt"
 viewBox="0.00 0.00 587.00 220.00" xmlns="http://www.w3.org/2000/svg" xmlns:xlink="http://www.w3.org/1999/xlink">
<g id="graph0" class="graph" transform="scale(1 1) rotate(0) translate(4 216)">
<title>G</title>
<polygon fill="white" stroke="none" points="-4,4 -4,-216 583,-216 583,4 -4,4"/>
<g id="clust1" class="cluster"><title>cluster_G</title>
<path fill="#808080" fill-opacity="0.094118" stroke="black" d="M20,-8C20,-8 559,-8 559,-8 565,-8 571,-14 571,-20 571,-20 571,-192 571,-192 571,-198 565,-204 559,-204 559,-204 20,-204 20,-204 14,-204 8,-198 8,-192 8,-192 8,-20 8,-20 8,-14 14,-8 20,-8"/>
</g>
<!-- crud -->
<g id="node1" class="node"><title>crud</title>
<ellipse fill="#ffffff" fill-opacity="0.698039" stroke="black" cx="279" cy="-178" rx="27" ry="18"/>
<text text-anchor="middle" x="279" y="-174.3" font-family="Times,serif" font-size="14.00" fill="#000000">crud</text>
</g>
<!-- models -->
<g id="node2" class="node"><title>models</title>
<ellipse fill="#ffffff" fill-opacity="0.698039" stroke="black" cx="52" cy="-106" rx="36.2938" ry="18"/>
<text text-anchor="middle" x="52" y="-102.3" font-family="Times,serif" font-size="14.00" fill="#000000">models</text>
</g>
<!-- crud&#45;&gt;models -->
<g id="edge6" class="edge"><title>crud&#45;&gt;models</title>
<path fill="none" stroke="#000000" d="M254.241,-170.335C219.226,-160.776 153.334,-142.302 98,-124 95.2719,-123.098 92.4636,-122.138 89.6436,-121.151"/>
<polygon fill="#000000" stroke="#000000" points="90.7054,-117.814 80.1109,-117.739 88.3463,-124.404 90.7054,-117.814"/>
</g>
<!-- crud__create_note -->
<g id="node3" class="node"><title>crud__create_note</title>
<ellipse fill="#ffffff" fill-opacity="0.698039" stroke="black" cx="158" cy="-106" rx="51.1914" ry="18"/>
<text text-anchor="middle" x="158" y="-102.3" font-family="Times,serif" font-size="14.00" fill="#000000">create_note</text>
</g>
<!-- crud&#45;&gt;crud__create_note -->
<g id="edge2" class="edge"><title>crud&#45;&gt;crud__create_note</title>
<path fill="none" stroke="#838b8b" stroke-dasharray="5,2" d="M259.29,-165.597C241.243,-155.157 214.131,-139.472 192.497,-126.957"/>
<polygon fill="#838b8b" stroke="#838b8b" points="194.012,-123.79 183.603,-121.812 190.506,-129.849 194.012,-123.79"/>
</g>
<!-- crud__delete_note -->
<g id="node4" class="node"><title>crud__delete_note</title>
<ellipse fill="#ffffff" fill-opacity="0.698039" stroke="black" cx="279" cy="-106" rx="51.1914" ry="18"/>
<text text-anchor="middle" x="279" y="-102.3" font-family="Times,serif" font-size="14.00" fill="#000000">delete_note</text>
</g>
<!-- crud&#45;&gt;crud__delete_note -->
<g id="edge1" class="edge"><title>crud&#45;&gt;crud__delete_note</title>
<path fill="none" stroke="#838b8b" stroke-dasharray="5,2" d="M279,-159.697C279,-151.983 279,-142.712 279,-134.112"/>
<polygon fill="#838b8b" stroke="#838b8b" points="282.5,-134.104 279,-124.104 275.5,-134.104 282.5,-134.104"/>
</g>
<!-- crud__get_notes -->
<g id="node5" class="node"><title>crud__get_notes</title>
<ellipse fill="#ffffff" fill-opacity="0.698039" stroke="black" cx="393" cy="-106" rx="44.393" ry="18"/>
<text text-anchor="middle" x="393" y="-102.3" font-family="Times,serif" font-size="14.00" fill="#000000">get_notes</text>
</g>
<!-- crud&#45;&gt;crud__get_notes -->
<g id="edge3" class="edge"><title>crud&#45;&gt;crud__get_notes</title>
<path fill="none" stroke="#838b8b" stroke-dasharray="5,2" d="M298.339,-165.125C315.493,-154.592 340.884,-139.001 361.052,-126.617"/>
<polygon fill="#838b8b" stroke="#838b8b" points="362.928,-129.572 369.619,-121.357 359.266,-123.607 362.928,-129.572"/>
</g>
<!-- crud__update_note -->
<g id="node6" class="node"><title>crud__update_note</title>
<ellipse fill="#ffffff" fill-opacity="0.698039" stroke="black" cx="509" cy="-106" rx="53.8905" ry="18"/>
<text text-anchor="middle" x="509" y="-102.3" font-family="Times,serif" font-size="14.00" fill="#000000">update_note</text>
</g>
<!-- crud&#45;&gt;crud__update_note -->
<g id="edge4" class="edge"><title>crud&#45;&gt;crud__update_note</title>
<path fill="none" stroke="#838b8b" stroke-dasharray="5,2" d="M303.179,-169.641C340.405,-158.311 412.49,-136.372 460.691,-121.703"/>
<polygon fill="#838b8b" stroke="#838b8b" points="461.746,-125.04 470.293,-118.78 459.708,-118.344 461.746,-125.04"/>
</g>
<!-- models__Note -->
<g id="node7" class="node"><title>models__Note</title>
<ellipse fill="#ffffff" fill-opacity="0.698039" stroke="black" cx="52" cy="-34" rx="27.8951" ry="18"/>
<text text-anchor="middle" x="52" y="-30.3" font-family="Times,serif" font-size="14.00" fill="#000000">Note</text>
</g>
<!-- models&#45;&gt;models__Note -->
<g id="edge5" class="edge"><title>models&#45;&gt;models__Note</title>
<path fill="none" stroke="#838b8b" stroke-dasharray="5,2" d="M52,-87.6966C52,-79.9827 52,-70.7125 52,-62.1124"/>
<polygon fill="#838b8b" stroke="#838b8b" points="55.5001,-62.1043 52,-52.1043 48.5001,-62.1044 55.5001,-62.1043"/>
</g>
<!-- crud__create_note&#45;&gt;models__Note -->
<g id="edge7" class="edge"><title>crud__create_note&#45;&gt;models__Note</title>
<path fill="none" stroke="#000000" d="M135,-89.811C118.718,-79.0592 96.8052,-64.5884 79.5833,-53.2154"/>
<polygon fill="#000000" stroke="#000000" points="81.3331,-50.1766 71.0597,-47.5866 77.4756,-56.0179 81.3331,-50.1766"/>
</g>
</g>
</svg>
