<?xml version="1.0" encoding="UTF-8" standalone="no"?>
<!DOCTYPE svg PUBLIC "-//W3C//DTD SVG 1.1//EN"
 "http://www.w3.org/Graphics/SVG/1.1/DTD/svg11.dtd">
<!-- Generated by graphviz version 2.38.0 (20140413.2041)
 -->
<!-- Title: G Pages: 1 -->
<svg width="674pt" height="222pt"
 viewBox="0.00 0.00 674.00 222.48" xmlns="http://www.w3.org/2000/svg" xmlns:xlink="http://www.w3.org/1999/xlink">
<g id="graph0" class="graph" transform="scale(1 1) rotate(0) translate(4 218.48)">
<title>G</title>
<polygon fill="white" stroke="none" points="-4,4 -4,-218.48 670,-218.48 670,4 -4,4"/>
<g id="clust1" class="cluster"><title>cluster_G</title>
<path fill="#808080" fill-opacity="0.094118" stroke="black" d="M20,-8C20,-8 646,-8 646,-8 652,-8 658,-14 658,-20 658,-20 658,-194.48 658,-194.48 658,-200.48 652,-206.48 646,-206.48 646,-206.48 20,-206.48 20,-206.48 14,-206.48 8,-200.48 8,-194.48 8,-194.48 8,-20 8,-20 8,-14 14,-8 20,-8"/>
</g>
<g id="clust2" class="cluster"><title>cluster_main</title>
<path fill="#808080" fill-opacity="0.094118" stroke="black" d="M96,-16C96,-16 638,-16 638,-16 644,-16 650,-22 650,-28 650,-28 650,-186.48 650,-186.48 650,-192.48 644,-198.48 638,-198.48 638,-198.48 96,-198.48 96,-198.48 90,-198.48 84,-192.48 84,-186.48 84,-186.48 84,-28 84,-28 84,-22 90,-16 96,-16"/>
<text text-anchor="middle" x="367" y="-183.28" font-family="Times,serif" font-size="14.00">main</text>
</g>
<!-- main -->
<g id="node1" class="node"><title>main</title>
<ellipse fill="#ffffff" fill-opacity="0.698039" stroke="black" cx="45" cy="-140.61" rx="28.6953" ry="18"/>
<text text-anchor="middle" x="45" y="-136.91" font-family="Times,serif" font-size="14.00" fill="#000000">main</text>
</g>
<!-- main__create_note -->
<g id="node2" class="node"><title>main__create_note</title>
<ellipse fill="#fecccc" fill-opacity="0.698039" stroke="black" cx="580" cy="-140.61" rx="62.4516" ry="26.7407"/>
<text text-anchor="middle" x="580" y="-144.41" font-family="Times,serif" font-size="14.00" fill="#000000">create_note</text>
<text text-anchor="middle" x="580" y="-129.41" font-family="Times,serif" font-size="14.00" fill="#000000">(main.py:23)</text>
</g>
<!-- main__get_db -->
<g id="node4" class="node"><title>main__get_db</title>
<ellipse fill="#fecccc" fill-opacity="0.698039" stroke="black" cx="367" cy="-50.8701" rx="62.4516" ry="26.7407"/>
<text text-anchor="middle" x="367" y="-54.6701" font-family="Times,serif" font-size="14.00" fill="#000000">get_db</text>
<text text-anchor="middle" x="367" y="-39.6701" font-family="Times,serif" font-size="14.00" fill="#000000">(main.py:16)</text>
</g>
<!-- main__create_note&#45;&gt;main__get_db -->
<g id="edge1" class="edge"><title>main__create_note&#45;&gt;main__get_db</title>
<path fill="none" stroke="#000000" d="M536.125,-121.537C502.587,-107.722 456.198,-88.613 420.486,-73.9022"/>
<polygon fill="#000000" stroke="#000000" points="421.764,-70.6433 411.184,-70.0707 419.097,-77.1157 421.764,-70.6433"/>
</g>
<!-- main__delete_note -->
<g id="node3" class="node"><title>main__delete_note</title>
<ellipse fill="#fecccc" fill-opacity="0.698039" stroke="black" cx="438" cy="-140.61" rx="62.4516" ry="26.7407"/>
<text text-anchor="middle" x="438" y="-144.41" font-family="Times,serif" font-size="14.00" fill="#000000">delete_note</text>
<text text-anchor="middle" x="438" y="-129.41" font-family="Times,serif" font-size="14.00" fill="#000000">(main.py:39)</text>
</g>
<!-- main__delete_note&#45;&gt;main__get_db -->
<g id="edge4" class="edge"><title>main__delete_note&#45;&gt;main__get_db</title>
<path fill="none" stroke="#000000" d="M417.844,-114.702C410.21,-105.268 401.403,-94.3842 393.286,-84.3539"/>
<polygon fill="#000000" stroke="#000000" points="395.972,-82.1087 386.96,-76.5368 390.53,-86.5121 395.972,-82.1087"/>
</g>
<!-- main__read_notes -->
<g id="node5" class="node"><title>main__read_notes</title>
<ellipse fill="#fecccc" fill-opacity="0.698039" stroke="black" cx="296" cy="-140.61" rx="62.4516" ry="26.7407"/>
<text text-anchor="middle" x="296" y="-144.41" font-family="Times,serif" font-size="14.00" fill="#000000">read_notes</text>
<text text-anchor="middle" x="296" y="-129.41" font-family="Times,serif" font-size="14.00" fill="#000000">(main.py:30)</text>
</g>
<!-- main__read_notes&#45;&gt;main__get_db -->
<g id="edge2" class="edge"><title>main__read_notes&#45;&gt;main__get_db</title>
<path fill="none" stroke="#000000" d="M316.156,-114.702C323.79,-105.268 332.597,-94.3842 340.714,-84.3539"/>
<polygon fill="#000000" stroke="#000000" points="343.47,-86.5121 347.04,-76.5368 338.028,-82.1087 343.47,-86.5121"/>
</g>
<!-- main__update_note -->
<g id="node6" class="node"><title>main__update_note</title>
<ellipse fill="#fecccc" fill-opacity="0.698039" stroke="black" cx="154" cy="-140.61" rx="62.4516" ry="26.7407"/>
<text text-anchor="middle" x="154" y="-144.41" font-family="Times,serif" font-size="14.00" fill="#000000">update_note</text>
<text text-anchor="middle" x="154" y="-129.41" font-family="Times,serif" font-size="14.00" fill="#000000">(main.py:35)</text>
</g>
<!-- main__update_note&#45;&gt;main__get_db -->
<g id="edge3" class="edge"><title>main__update_note&#45;&gt;main__get_db</title>
<path fill="none" stroke="#000000" d="M197.875,-121.537C231.413,-107.722 277.802,-88.613 313.514,-73.9022"/>
<polygon fill="#000000" stroke="#000000" points="314.903,-77.1157 322.816,-70.0707 312.236,-70.6433 314.903,-77.1157"/>
</g>
</g>
</svg>
